<svg class="icon icon-save" xmlns="http://www.w3.org/2000/svg" viewBox="0 0 512 512">
  <title>icon-save</title>
  <path d="M506.51,124.12,387.88,5.49h0A18.81,18.81,0,0,0,374.63,0H18.73A18.74,18.74,0,0,0,0,18.73V493.27A18.74,18.74,0,0,0,18.73,512H493.27A18.74,18.74,0,0,0,512,493.27V137.37A18.71,18.71,0,0,0,506.51,124.12ZM156.1,37.46H355.9V148.29H156.1ZM400.45,474.54H111.55V316.93h288.9Zm74.09,0H437.91V298.2a18.73,18.73,0,0,0-18.73-18.73H92.82A18.73,18.73,0,0,0,74.09,298.2V474.54H37.46V37.46h81.17V167a18.74,18.74,0,0,0,18.74,18.73H374.63A18.74,18.74,0,0,0,393.37,167V64l81.17,81.18Z"/>
  <path d="M309.51,55a18.74,18.74,0,0,0-18.73,18.74V112a18.74,18.74,0,1,0,37.47,0V73.75A18.74,18.74,0,0,0,309.51,55Z"/>
</svg>
